<svg id="visual" viewBox="0 0 900 600" width="900" height="600" xmlns="http://www.w3.org/2000/svg" xmlns:xlink="http://www.w3.org/1999/xlink" version="1.1"><rect x="0" y="0" width="900" height="600" fill="#001220"></rect><defs><linearGradient id="grad1_0" x1="33.3%" y1="100%" x2="100%" y2="0%"><stop offset="20%" stop-color="#fbae3c" stop-opacity="1"></stop><stop offset="80%" stop-color="#fbae3c" stop-opacity="1"></stop></linearGradient></defs><defs><linearGradient id="grad1_1" x1="33.3%" y1="100%" x2="100%" y2="0%"><stop offset="20%" stop-color="#fbae3c" stop-opacity="1"></stop><stop offset="80%" stop-color="#f17c53" stop-opacity="1"></stop></linearGradient></defs><defs><linearGradient id="grad1_2" x1="33.3%" y1="100%" x2="100%" y2="0%"><stop offset="20%" stop-color="#cc5867" stop-opacity="1"></stop><stop offset="80%" stop-color="#f17c53" stop-opacity="1"></stop></linearGradient></defs><defs><linearGradient id="grad1_3" x1="33.3%" y1="100%" x2="100%" y2="0%"><stop offset="20%" stop-color="#cc5867" stop-opacity="1"></stop><stop offset="80%" stop-color="#96446e" stop-opacity="1"></stop></linearGradient></defs><defs><linearGradient id="grad1_4" x1="33.3%" y1="100%" x2="100%" y2="0%"><stop offset="20%" stop-color="#593762" stop-opacity="1"></stop><stop offset="80%" stop-color="#96446e" stop-opacity="1"></stop></linearGradient></defs><defs><linearGradient id="grad1_5" x1="33.3%" y1="100%" x2="100%" y2="0%"><stop offset="20%" stop-color="#593762" stop-opacity="1"></stop><stop offset="80%" stop-color="#232745" stop-opacity="1"></stop></linearGradient></defs><defs><linearGradient id="grad1_6" x1="33.3%" y1="100%" x2="100%" y2="0%"><stop offset="20%" stop-color="#001220" stop-opacity="1"></stop><stop offset="80%" stop-color="#232745" stop-opacity="1"></stop></linearGradient></defs><defs><linearGradient id="grad2_0" x1="0%" y1="100%" x2="66.7%" y2="0%"><stop offset="20%" stop-color="#fbae3c" stop-opacity="1"></stop><stop offset="80%" stop-color="#fbae3c" stop-opacity="1"></stop></linearGradient></defs><defs><linearGradient id="grad2_1" x1="0%" y1="100%" x2="66.7%" y2="0%"><stop offset="20%" stop-color="#f17c53" stop-opacity="1"></stop><stop offset="80%" stop-color="#fbae3c" stop-opacity="1"></stop></linearGradient></defs><defs><linearGradient id="grad2_2" x1="0%" y1="100%" x2="66.7%" y2="0%"><stop offset="20%" stop-color="#f17c53" stop-opacity="1"></stop><stop offset="80%" stop-color="#cc5867" stop-opacity="1"></stop></linearGradient></defs><defs><linearGradient id="grad2_3" x1="0%" y1="100%" x2="66.7%" y2="0%"><stop offset="20%" stop-color="#96446e" stop-opacity="1"></stop><stop offset="80%" stop-color="#cc5867" stop-opacity="1"></stop></linearGradient></defs><defs><linearGradient id="grad2_4" x1="0%" y1="100%" x2="66.7%" y2="0%"><stop offset="20%" stop-color="#96446e" stop-opacity="1"></stop><stop offset="80%" stop-color="#593762" stop-opacity="1"></stop></linearGradient></defs><defs><linearGradient id="grad2_5" x1="0%" y1="100%" x2="66.7%" y2="0%"><stop offset="20%" stop-color="#232745" stop-opacity="1"></stop><stop offset="80%" stop-color="#593762" stop-opacity="1"></stop></linearGradient></defs><defs><linearGradient id="grad2_6" x1="0%" y1="100%" x2="66.7%" y2="0%"><stop offset="20%" stop-color="#232745" stop-opacity="1"></stop><stop offset="80%" stop-color="#001220" stop-opacity="1"></stop></linearGradient></defs><g transform="translate(900, 600)"><path d="M-540.8 0C-461.6 -30.2 -382.5 -60.3 -375.7 -122.1C-368.9 -183.8 -434.5 -277.1 -409.4 -297.4C-384.2 -317.7 -268.4 -264.9 -219.8 -302.6C-171.3 -340.3 -190.1 -468.4 -164.7 -506.9C-139.3 -545.4 -69.6 -494.2 0 -443L0 0Z" fill="#0f1d33"></path><path d="M-463.6 0C-395.7 -25.8 -327.8 -51.7 -322 -104.6C-316.2 -157.6 -372.4 -237.6 -350.9 -254.9C-329.3 -272.3 -230 -227 -188.4 -259.3C-146.8 -291.6 -163 -401.5 -141.2 -434.5C-119.4 -467.5 -59.7 -423.6 0 -379.7L0 0Z" fill="#3d3056"></path><path d="M-386.3 0C-329.7 -21.5 -273.2 -43.1 -268.3 -87.2C-263.5 -131.3 -310.4 -198 -292.4 -212.4C-274.5 -226.9 -191.7 -189.2 -157 -216.1C-122.4 -243 -135.8 -334.6 -117.6 -362.1C-99.5 -389.6 -49.7 -353 0 -316.4L0 0Z" fill="#773d6b"></path><path d="M-309 0C-263.8 -17.2 -218.5 -34.5 -214.7 -69.7C-210.8 -105 -248.3 -158.4 -233.9 -170C-219.6 -181.5 -153.3 -151.4 -125.6 -172.9C-97.9 -194.4 -108.6 -267.7 -94.1 -289.7C-79.6 -311.7 -39.8 -282.4 0 -253.1L0 0Z" fill="#b34c6d"></path><path d="M-231.8 0C-197.8 -12.9 -163.9 -25.8 -161 -52.3C-158.1 -78.8 -186.2 -118.8 -175.4 -127.5C-164.7 -136.2 -115 -113.5 -94.2 -129.7C-73.4 -145.8 -81.5 -200.8 -70.6 -217.2C-59.7 -233.7 -29.8 -211.8 0 -189.9L0 0Z" fill="#e1685e"></path><path d="M-154.5 0C-131.9 -8.6 -109.3 -17.2 -107.3 -34.9C-105.4 -52.5 -124.1 -79.2 -117 -85C-109.8 -90.8 -76.7 -75.7 -62.8 -86.4C-48.9 -97.2 -54.3 -133.8 -47.1 -144.8C-39.8 -155.8 -19.9 -141.2 0 -126.6L0 0Z" fill="#f99447"></path><path d="M-77.3 0C-65.9 -4.3 -54.6 -8.6 -53.7 -17.4C-52.7 -26.3 -62.1 -39.6 -58.5 -42.5C-54.9 -45.4 -38.3 -37.8 -31.4 -43.2C-24.5 -48.6 -27.2 -66.9 -23.5 -72.4C-19.9 -77.9 -9.9 -70.6 0 -63.3L0 0Z" fill="#fbae3c"></path></g><g transform="translate(0, 0)"><path d="M427 0C388.8 27.8 350.5 55.7 368.1 119.6C385.6 183.5 458.9 283.5 437.5 317.9C416.2 352.3 300.3 321 233.9 322C167.6 323 150.9 356.4 120.2 370C89.5 383.5 44.7 377.3 0 371L0 0Z" fill="#0f1d33"></path><path d="M366 0C333.2 23.9 300.5 47.7 315.5 102.5C330.5 157.3 393.3 243 375 272.5C356.8 301.9 257.4 275.1 200.5 276C143.7 276.9 129.4 305.5 103 317.1C76.7 328.7 38.4 323.4 0 318L0 0Z" fill="#3d3056"></path><path d="M305 0C277.7 19.9 250.4 39.8 262.9 85.4C275.4 131.1 327.8 202.5 312.5 227.1C297.3 251.6 214.5 229.3 167.1 230C119.7 230.7 107.8 254.6 85.9 264.3C63.9 273.9 32 269.5 0 265L0 0Z" fill="#773d6b"></path><path d="M244 0C222.2 15.9 200.3 31.8 210.3 68.3C220.3 104.9 262.2 162 250 181.7C237.8 201.3 171.6 183.4 133.7 184C95.8 184.6 86.2 203.7 68.7 211.4C51.1 219.2 25.6 215.6 0 212L0 0Z" fill="#b34c6d"></path><path d="M183 0C166.6 11.9 150.2 23.9 157.7 51.3C165.3 78.6 196.7 121.5 187.5 136.2C178.4 151 128.7 137.6 100.3 138C71.8 138.4 64.7 152.7 51.5 158.6C38.4 164.4 19.2 161.7 0 159L0 0Z" fill="#e1685e"></path><path d="M122 0C111.1 8 100.2 15.9 105.2 34.2C110.2 52.4 131.1 81 125 90.8C118.9 100.6 85.8 91.7 66.8 92C47.9 92.3 43.1 101.8 34.3 105.7C25.6 109.6 12.8 107.8 0 106L0 0Z" fill="#f99447"></path><path d="M61 0C55.5 4 50.1 8 52.6 17.1C55.1 26.2 65.6 40.5 62.5 45.4C59.5 50.3 42.9 45.9 33.4 46C23.9 46.1 21.6 50.9 17.2 52.9C12.8 54.8 6.4 53.9 0 53L0 0Z" fill="#fbae3c"></path></g></svg>